# xmcd CD database file
#
# Track frame offsets:
#	150
#	19528
#	38117
#	49290
#	67867
#	86720
#	109907
#	126282
#	140002
#	152942
#	176685
#	190688
#	202410
#	215904
#	233039
#	245865
#	264640
#	289422
#	301784
#
# Disc length: 4508 seconds
#
# Revision: 0
# Processed by: cddbd v1.5.2PL0 Copyright (c) Steve Scherf et al.
# Submitted via: CDex 1.70beta2
#
DISCID=29119a13
DTITLE=Various Artist - Les Trésors Du Jazz 1954 (4)
DYEAR=2006
DGENRE=Jazz
TTITLE0=Dizzy Gillespie, Manteca
TTITLE1=Jam Session Apollo, Don't Blame Me
TTITLE2=Bob Gordon and Jack Montrose, Two Can Play
TTITLE3=Gerry Mulligan, Bernie's Tune
TTITLE4=Gerry Mulligan, Laura
TTITLE5=Gerry Mulligan, Love Me Or Leave Me
TTITLE6=Bud Powell, Moonlight In Vermont
TTITLE7=Bud Powell, Buttercup
TTITLE8=Ella Fitzgerald, Lullaby Of Birdland
TTITLE9=Thelonious Monk, Round About Midnight
TTITLE10=Thelonious Monk, Evidence
TTITLE11=Thelonious Monk, We See
TTITLE12=Bud Powell, It Never Entered My Mind
TTITLE13=Bud Powell, A Foggy Day
TTITLE14=George Wallington, Without Reservation
TTITLE15=Milt Jackson, Opus De Funk
TTITLE16=Milt Jackson, Soma
TTITLE17=Bud Shank, Wailing Vessel
TTITLE18=Art Tatum, Blues In C
EXTD=YEAR: 2006
EXTT0=
EXTT1=
EXTT2=
EXTT3=
EXTT4=
EXTT5=
EXTT6=
EXTT7=
EXTT8=
EXTT9=
EXTT10=
EXTT11=
EXTT12=
EXTT13=
EXTT14=
EXTT15=
EXTT16=
EXTT17=
EXTT18=
PLAYORDER=
